<svg xmlns="http://www.w3.org/2000/svg" viewBox="0 0 24 24" id="Customer-Relationship-Management-Asset-Coin--Streamline-Ultimate" height="24" width="24">
  <desc>
    Customer Relationship Management Asset Coin Streamline Icon: https://streamlinehq.com
  </desc>
  <defs></defs>
  <path d="m3.337 22.675 4.847 0.782a4.485 4.485 0 0 0 2.916 -0.587l5.075 -3.017a1.5 1.5 0 0 0 0.521 -2.05h0a1.5 1.5 0 0 0 -2.05 -0.521l-3.963 2.356" fill="none" stroke="#dddddd" stroke-linecap="round" stroke-linejoin="round" stroke-width="1"></path>
  <path d="M3.337 18.783 5.4 17.559a4.487 4.487 0 0 1 2.526 -0.624l2.05 0.107a1.4 1.4 0 0 1 1.388 1.468h0a1.4 1.4 0 0 1 -1.292 1.32l-2.622 -0.012" fill="none" stroke="#dddddd" stroke-linecap="round" stroke-linejoin="round" stroke-width="1"></path>
  <path d="M20.663 1.325 15.816 0.543a4.485 4.485 0 0 0 -2.911 0.587L7.83 4.147A1.5 1.5 0 0 0 7.309 6.2h0a1.5 1.5 0 0 0 2.05 0.521l3.963 -2.356" fill="none" stroke="#dddddd" stroke-linecap="round" stroke-linejoin="round" stroke-width="1"></path>
  <path d="m20.663 5.217 -2.058 1.224a4.487 4.487 0 0 1 -2.526 0.624l-2.05 -0.107a1.4 1.4 0 0 1 -1.388 -1.468h0a1.4 1.4 0 0 1 1.292 -1.32l2.617 0.012" fill="none" stroke="#dddddd" stroke-linecap="round" stroke-linejoin="round" stroke-width="1"></path>
  <path d="M13.2 9.265h-1.856a1.223 1.223 0 0 0 -0.455 2.359l1.881 0.752a1.223 1.223 0 0 1 -0.454 2.359h-1.854" fill="none" stroke="#dddddd" stroke-linecap="round" stroke-linejoin="round" stroke-width="1"></path>
  <path d="m11.83 9.265 0 -0.684" fill="none" stroke="#dddddd" stroke-linecap="round" stroke-linejoin="round" stroke-width="1"></path>
  <path d="m11.83 15.419 0 -0.684" fill="none" stroke="#dddddd" stroke-linecap="round" stroke-linejoin="round" stroke-width="1"></path>
  <path d="M15.1 16.93a5.916 5.916 0 0 0 0.037 -9.83" fill="none" stroke="#dddddd" stroke-linecap="round" stroke-linejoin="round" stroke-width="1"></path>
  <path d="M8.814 6.909a5.918 5.918 0 0 0 -0.292 10" fill="none" stroke="#dddddd" stroke-linecap="round" stroke-linejoin="round" stroke-width="1"></path>
</svg>