<svg width="9" height="8" viewBox="0 0 9 8" fill="none" xmlns="http://www.w3.org/2000/svg">
<path d="M1.51884 1.84096C1.51884 1.76927 1.51884 1.49354 1.51884 1.01376L1.51884 0.194824L2.65164 0.194824L2.65164 4.27295C2.64612 4.83545 2.75366 5.26284 2.97425 5.55512C3.19484 5.84188 3.5332 6.28257 4.40579 6.28257C5.21737 6.28257 5.64897 5.84188 5.86955 5.55512C6.09566 5.26284 6.20595 4.83545 6.20044 4.27295L6.20044 0.194824L7.29274 0.194824V1.84096L8.6659 1.84096V2.80052L7.29274 2.80052L7.29274 3.56982L8.6659 3.56982V4.52938L7.28447 4.52938C7.22932 5.42828 6.9591 6.1121 6.47381 6.58085C5.98851 7.0496 5.29917 7.28398 4.40579 7.28398C3.51241 7.28398 2.82307 7.0496 2.33778 6.58085C1.85248 6.1121 1.58226 5.42828 1.52711 4.52938H0.195312L0.195312 3.56982L1.51884 3.56982V2.80052L0.195312 2.80052L0.195312 1.84096L1.51884 1.84096Z" fill="#DDDDDD" stroke="#DDDDDD" stroke-width="0.389598"/>
</svg>
