<svg width="16" height="16" viewBox="0 0 16 16" fill="none" xmlns="http://www.w3.org/2000/svg">
<path d="M8 16C12.4183 16 16 12.4183 16 8C16 3.58172 12.4183 0 8 0C3.58172 0 0 3.58172 0 8C0 12.4183 3.58172 16 8 16Z" fill="#1858E4"/>
<path d="M6.02734 4.80762V8.68945C6.02162 9.27303 6.1317 9.75017 6.38867 10.0908L6.39062 10.0928C6.50057 10.2357 6.65728 10.4417 6.9082 10.6074C7.16337 10.7758 7.50469 10.8955 7.97656 10.8955C8.87309 10.8953 9.35464 10.4026 9.59375 10.0918C9.82429 9.7935 9.94045 9.3909 9.96191 8.90332L9.96582 8.68945V4.80762H10.668V6.4541H12.041V7.02441H10.668V8.18262H12.041V8.75293L10.6719 8.75293L10.6602 8.93555C10.607 9.80234 10.349 10.4345 9.90918 10.8594C9.47083 11.2828 8.83608 11.5077 7.97656 11.5078C7.11682 11.5078 6.4814 11.2829 6.04297 10.8594C5.60315 10.4345 5.34517 9.80232 5.29199 8.93555L5.28027 8.75293H3.95996V8.18262H5.28418V7.02441H3.95996V6.4541H5.28418V4.80762L6.02734 4.80762Z" fill="white" stroke="white" stroke-width="0.389598"/>
</svg>
