<svg width="24" height="24" viewBox="0 0 24 24" fill="none" xmlns="http://www.w3.org/2000/svg">
<rect width="24" height="24" rx="12" fill="#59AA8A" fill-opacity="0.1"/>
<g clip-path="url(#clip0_21196_79426)">
<path d="M16.6829 6H7.31707C6.59109 6 6 6.59109 6 7.31707V16.6829C6 17.4089 6.59109 18 7.31707 18H16.6829C17.4089 18 18 17.4089 18 16.6829V7.31707C18 6.59109 17.4089 6 16.6829 6ZM17.1 16.2C17.1045 16.729 16.792 17.0834 16.2 17.1H7.8C7.16424 17.1474 6.86501 16.7749 6.9 16.2V7.8C6.91941 7.18715 7.21187 6.89204 7.8 6.9H16.2C16.8532 6.86779 17.1448 7.20988 17.1 7.8V16.2Z" fill="#59AA8A"/>
<path fill-rule="evenodd" clip-rule="evenodd" d="M10.3013 9.13864C10.4861 8.95379 10.7858 8.95379 10.9707 9.13864L11.8553 10.0232C12.2294 9.77543 12.6781 9.63112 13.1605 9.63112C13.6428 9.63112 14.0915 9.77543 14.4656 10.0232L15.3503 9.13864C15.5351 8.95379 15.8348 8.95379 16.0197 9.13864C16.2045 9.32349 16.2045 9.62319 16.0197 9.80804L15.1351 10.6926C15.3828 11.0668 15.5272 11.5155 15.5272 11.9978C15.5272 12.4802 15.3828 12.9289 15.1351 13.303L16.0197 14.1876C16.2045 14.3725 16.2045 14.6722 16.0197 14.857C15.8348 15.0419 15.5351 15.0419 15.3503 14.857L14.4656 13.9724C14.0915 14.2202 13.6428 14.3645 13.1605 14.3645C12.6781 14.3645 12.2294 14.2202 11.8553 13.9724L10.9707 14.857C10.7858 15.0419 10.4861 15.0419 10.3013 14.857C10.1164 14.6722 10.1164 14.3725 10.3013 14.1876L11.1859 13.303C10.9381 12.9289 10.7938 12.4802 10.7938 11.9978C10.7938 11.5155 10.9381 11.0668 11.1859 10.6926L10.3013 9.80804C10.1164 9.62319 10.1164 9.32349 10.3013 9.13864ZM11.7405 11.9978C11.7405 11.2136 12.3762 10.5778 13.1605 10.5778C13.9447 10.5778 14.5805 11.2136 14.5805 11.9978C14.5805 12.7821 13.9447 13.4179 13.1605 13.4179C12.3762 13.4179 11.7405 12.7821 11.7405 11.9978Z" fill="#59AA8A"/>
<path d="M8.91412 8.87334C8.91412 8.61192 8.70219 8.4 8.44077 8.4C8.17936 8.4 7.96743 8.61192 7.96743 8.87334V15.1846C7.96743 15.446 8.17936 15.6579 8.44077 15.6579C8.70219 15.6579 8.91412 15.446 8.91412 15.1846V8.87334Z" fill="#59AA8A"/>
</g>
<defs>
<clipPath id="clip0_21196_79426">
<rect width="12" height="12" fill="white" transform="translate(6 6)"/>
</clipPath>
</defs>
</svg>
