<svg viewBox="0 0 24 24" xmlns="http://www.w3.org/2000/svg" id="Retouch-Graph--Streamline-Ultimate" height="24" width="24">
  <desc>
    Retouch Graph Streamline Icon: https://streamlinehq.com
  </desc>
  <path d="m2.5 0.5 0 21 21 0" fill="none" stroke="#dddddd" stroke-linecap="round" stroke-linejoin="round" stroke-width="1"></path>
  <path d="M8.5 16.504a2 2 0 1 0 4 0 2 2 0 1 0 -4 0Z" fill="none" stroke="#dddddd" stroke-linecap="round" stroke-linejoin="round" stroke-width="1"></path>
  <path d="M15.5 4.504a2 2 0 1 0 4 0 2 2 0 1 0 -4 0Z" fill="none" stroke="#dddddd" stroke-linecap="round" stroke-linejoin="round" stroke-width="1"></path>
  <path d="M19.022 3.208A7.013 7.013 0 0 1 23.5 1.5" fill="none" stroke="#dddddd" stroke-linecap="round" stroke-linejoin="round" stroke-width="1"></path>
  <path d="M11.947 15.126A17.6 17.6 0 0 0 14 11a21.339 21.339 0 0 1 2.354 -4.861" fill="none" stroke="#dddddd" stroke-linecap="round" stroke-linejoin="round" stroke-width="1"></path>
  <path d="M2.5 21.5s3.064 -0.222 6.792 -3.4" fill="none" stroke="#dddddd" stroke-linecap="round" stroke-linejoin="round" stroke-width="1"></path>
  <path d="m0.5 2.5 2 -2 2 2" fill="none" stroke="#dddddd" stroke-linecap="round" stroke-linejoin="round" stroke-width="1"></path>
  <path d="m21.5 19.5 2 2 -2 2" fill="none" stroke="#dddddd" stroke-linecap="round" stroke-linejoin="round" stroke-width="1"></path>
</svg>