<svg viewBox="0 0 24 24" xmlns="http://www.w3.org/2000/svg" id="Skull--Streamline-Ultimate" height="24" width="24">
  <desc>
    Skull Streamline Icon: https://streamlinehq.com
  </desc>
  <path d="M17.5 23.5v-5a5 5 0 0 0 5 -5V11a10.5 10.5 0 0 0 -21 0v2.5a5 5 0 0 0 5 5v5" fill="none" stroke="#dddddd" stroke-linecap="round" stroke-linejoin="round" stroke-width="1"></path>
  <path d="M6.441 4.5c0 2.734 -1.636 4 -3.441 4H1.8" fill="none" stroke="#dddddd" stroke-linecap="round" stroke-linejoin="round" stroke-width="1"></path>
  <path d="M4 12.5a3 3 0 1 0 6 0 3 3 0 1 0 -6 0Z" fill="none" stroke="#dddddd" stroke-linecap="round" stroke-linejoin="round" stroke-width="1"></path>
  <path d="M17.559 4.5c0 2.734 1.636 4 3.441 4h1.2" fill="none" stroke="#dddddd" stroke-linecap="round" stroke-linejoin="round" stroke-width="1"></path>
  <path d="M14 12.5a3 3 0 1 0 6 0 3 3 0 1 0 -6 0Z" fill="none" stroke="#dddddd" stroke-linecap="round" stroke-linejoin="round" stroke-width="1"></path>
  <path d="m11 16 0.276 -0.553a0.81 0.81 0 0 1 1.448 0L13 16" fill="none" stroke="#dddddd" stroke-linecap="round" stroke-linejoin="round" stroke-width="1"></path>
  <path d="m10 18.5 0 5" fill="none" stroke="#dddddd" stroke-linecap="round" stroke-linejoin="round" stroke-width="1"></path>
  <path d="m14 18.5 0 5" fill="none" stroke="#dddddd" stroke-linecap="round" stroke-linejoin="round" stroke-width="1"></path>
</svg>