<svg xmlns="http://www.w3.org/2000/svg" viewBox="0 0 24 24" id="Keyboard-Delete--Streamline-Ultimate" height="24" width="24">
  <desc>
    Keyboard Delete Streamline Icon: https://streamlinehq.com
  </desc>
  <defs></defs>
  <title>keyboard-delete</title>
  <path d="M4.498 0.497h15s4 0 4 4v15s0 4 -4 4h-15s-4 0 -4 -4v-15s0 -4 4 -4" fill="none" stroke="#dddddd" stroke-linecap="round" stroke-linejoin="round" stroke-width="1"></path>
  <path d="m14.498 10.497 -3 3" fill="none" stroke="#dddddd" stroke-linecap="round" stroke-linejoin="round" stroke-width="1"></path>
  <path d="m14.498 13.497 -3 -3" fill="none" stroke="#dddddd" stroke-linecap="round" stroke-linejoin="round" stroke-width="1"></path>
  <path d="M18.5 15a0.5 0.5 0 0 1 -0.5 0.5H8.205a0.5 0.5 0 0 1 -0.353 -0.146l-3 -3a0.5 0.5 0 0 1 0 -0.707l3 -3a0.5 0.5 0 0 1 0.353 -0.147H18a0.5 0.5 0 0 1 0.5 0.5Z" fill="none" stroke="#dddddd" stroke-linecap="round" stroke-linejoin="round" stroke-width="1"></path>
</svg>