<svg viewBox="0 0 24 24" xmlns="http://www.w3.org/2000/svg" id="Face-Id--Streamline-Ultimate" height="24" width="24">
  <desc>
    Face Id Streamline Icon: https://streamlinehq.com
  </desc>
  <path d="M0.5 6.5v-3a3 3 0 0 1 3 -3h3" fill="none" stroke="#dddddd" stroke-linecap="round" stroke-linejoin="round" stroke-width="1"></path>
  <path d="M23.5 6.5v-3a3 3 0 0 0 -3 -3h-3" fill="none" stroke="#dddddd" stroke-linecap="round" stroke-linejoin="round" stroke-width="1"></path>
  <path d="M0.5 17.5v3a3 3 0 0 0 3 3h3" fill="none" stroke="#dddddd" stroke-linecap="round" stroke-linejoin="round" stroke-width="1"></path>
  <path d="M23.5 17.5v3a3 3 0 0 1 -3 3h-3" fill="none" stroke="#dddddd" stroke-linecap="round" stroke-linejoin="round" stroke-width="1"></path>
  <path d="M12.5 8v4.5A1.5 1.5 0 0 1 11 14h-0.5" fill="none" stroke="#dddddd" stroke-linecap="round" stroke-linejoin="round" stroke-width="1"></path>
  <path d="m7.5 8 0 2.5" fill="none" stroke="#dddddd" stroke-linecap="round" stroke-linejoin="round" stroke-width="1"></path>
  <path d="m17.5 8 0 2.5" fill="none" stroke="#dddddd" stroke-linecap="round" stroke-linejoin="round" stroke-width="1"></path>
  <path d="M8.233 17a5.48 5.48 0 0 0 7.534 0" fill="none" stroke="#dddddd" stroke-linecap="round" stroke-linejoin="round" stroke-width="1"></path>
</svg>