<svg xmlns="http://www.w3.org/2000/svg" fill="none" viewBox="0 0 24 24" id="Alert-Push-Notification-2--Streamline-Ultimate" height="24" width="24">
  <desc>
    Alert Push Notification 2 Streamline Icon: https://streamlinehq.com
  </desc>
  <path stroke="#dddddd" stroke-linecap="round" stroke-linejoin="round" d="M20.5 12.5v8c0 0.7956 -0.3161 1.5587 -0.8787 2.1213 -0.5626 0.5626 -1.3257 0.8787 -2.1213 0.8787h-14c-0.79565 0 -1.55871 -0.3161 -2.12132 -0.8787C0.81607 22.0587 0.5 21.2956 0.5 20.5v-14c0 -0.79565 0.31607 -1.55871 0.87868 -2.12132C1.94129 3.81607 2.70435 3.5 3.5 3.5h8" stroke-width="1"></path>
  <path stroke="#dddddd" stroke-linecap="round" stroke-linejoin="round" d="M18.5 10.5c2.7614 0 5 -2.23858 5 -5s-2.2386 -5 -5 -5 -5 2.23858 -5 5 2.2386 5 5 5Z" stroke-width="1"></path>
  <path stroke="#dddddd" d="M18.5 8.25c-0.1381 0 -0.25 -0.11193 -0.25 -0.25s0.1119 -0.25 0.25 -0.25" stroke-width="1"></path>
  <path stroke="#dddddd" d="M18.5 8.25c0.1381 0 0.25 -0.11193 0.25 -0.25s-0.1119 -0.25 -0.25 -0.25" stroke-width="1"></path>
  <path stroke="#dddddd" stroke-linecap="round" stroke-linejoin="round" d="M18.5 5.75v-3" stroke-width="1"></path>
</svg>