<svg viewBox="0 0 24 24" xmlns="http://www.w3.org/2000/svg" id="Copy-Paste--Streamline-Ultimate" height="24" width="24">
  <desc>
    Copy Paste Streamline Icon: https://streamlinehq.com
  </desc>
  <path d="M9.5 21.5h-8a1 1 0 0 1 -1 -1v-16a1 1 0 0 1 1 -1h2" fill="none" stroke="#dddddd" stroke-linecap="round" stroke-linejoin="round" stroke-width="1"></path>
  <path d="M13.5 3.5h2a1 1 0 0 1 1 1V8" fill="none" stroke="#dddddd" stroke-linecap="round" stroke-linejoin="round" stroke-width="1"></path>
  <path d="M7 1.999a1.5 1.5 0 1 0 3 0 1.5 1.5 0 1 0 -3 0Z" fill="none" stroke="#dddddd" stroke-linecap="round" stroke-linejoin="round" stroke-width="1"></path>
  <path d="M9.915 2.5H12.5a1 1 0 0 1 1 1v1a1 1 0 0 1 -1 1h-8a1 1 0 0 1 -1 -1v-1a1 1 0 0 1 1 -1h2.585" fill="none" stroke="#dddddd" stroke-linecap="round" stroke-linejoin="round" stroke-width="1"></path>
  <path d="M22.5 22.5a1 1 0 0 1 -1 1h-9a1 1 0 0 1 -1 -1V11a1 1 0 0 1 1 -1h7.086a1 1 0 0 1 0.707 0.293l1.914 1.914a1 1 0 0 1 0.293 0.707Z" fill="none" stroke="#dddddd" stroke-linecap="round" stroke-linejoin="round" stroke-width="1"></path>
  <path d="m14.5 14.499 5 0" fill="none" stroke="#dddddd" stroke-linecap="round" stroke-linejoin="round" stroke-width="1"></path>
  <path d="m14.5 17.499 5 0" fill="none" stroke="#dddddd" stroke-linecap="round" stroke-linejoin="round" stroke-width="1"></path>
</svg>