<svg xmlns="http://www.w3.org/2000/svg" fill="none" viewBox="0 0 24 24" id="Video-Game-Pacman-Enemy--Streamline-Ultimate" height="24" width="24">
  <desc>
    Video Game Pacman Enemy Streamline Icon: https://streamlinehq.com
  </desc>
  <path stroke="#dddddd" stroke-linecap="round" stroke-linejoin="round" d="M15.1438 21.2835c0.3593 -0.3608 0.8432 -0.5702 1.3522 -0.585 0.5089 -0.0148 1.0042 0.1661 1.3838 0.5054l1.9102 1.9898c0.1427 0.1288 0.3197 0.2135 0.5095 0.2438 0.1898 0.0304 0.3844 0.0051 0.5601 -0.0728 0.1758 -0.0779 0.3252 -0.205 0.4302 -0.366 0.1051 -0.161 0.1612 -0.349 0.1616 -0.5413v-12.456c0 -2.50665 -0.9957 -4.91066 -2.7682 -6.68315C16.9107 1.54576 14.5067 0.549988 12 0.549988c-2.50668 0 -4.91069 0.995772 -6.68318 2.768262 -1.77249 1.77249 -2.76827 4.1765 -2.76827 6.68315v12.4361c0.00046 0.1923 0.05659 0.3803 0.16162 0.5413 0.10504 0.161 0.25446 0.2881 0.43022 0.366 0.17575 0.0779 0.3703 0.1032 0.56013 0.0728 0.18982 -0.0303 0.36679 -0.115 0.5095 -0.2438l1.91019 -1.9898c0.37963 -0.3393 0.87488 -0.5202 1.38383 -0.5054 0.50894 0.0148 0.99285 0.2242 1.35211 0.585l1.74105 1.562c0.3728 0.3706 0.8771 0.5786 1.4028 0.5786 0.5257 0 1.03 -0.208 1.4028 -0.5786 0.587 -0.5273 1.1939 -0.9949 1.741 -1.5421Z" stroke-width="1"></path>
  <path stroke="#dddddd" stroke-linecap="round" stroke-linejoin="round" d="M10.5077 10.2502c0 0.5936 -0.2359 1.163 -0.65567 1.5828 -0.4198 0.4198 -0.98917 0.6557 -1.58286 0.6557 -0.59369 0 -1.16306 -0.2359 -1.58286 -0.6557 -0.4198 -0.4198 -0.65564 -0.9892 -0.65564 -1.5828V8.75782c0 -0.59369 0.23584 -1.16306 0.65564 -1.58286 0.4198 -0.4198 0.98917 -0.65564 1.58286 -0.65564 0.59369 0 1.16306 0.23584 1.58286 0.65564 0.41977 0.4198 0.65567 0.98917 0.65567 1.58286v1.49238Z" stroke-width="1"></path>
  <path stroke="#dddddd" stroke-linecap="round" stroke-linejoin="round" d="M17.9693 10.2502c0 0.5936 -0.2358 1.163 -0.6556 1.5828 -0.4198 0.4198 -0.9892 0.6557 -1.5829 0.6557 -0.5936 0 -1.163 -0.2359 -1.5828 -0.6557 -0.4198 -0.4198 -0.6557 -0.9892 -0.6557 -1.5828V8.75782c0 -0.59369 0.2359 -1.16306 0.6557 -1.58286 0.4198 -0.4198 0.9892 -0.65564 1.5828 -0.65564 0.5937 0 1.1631 0.23584 1.5829 0.65564 0.4198 0.4198 0.6556 0.98917 0.6556 1.58286v1.49238Z" stroke-width="1"></path>
  <g>
    <path stroke="#dddddd" d="M8.51789 10.4989c-0.27473 0 -0.49744 -0.2227 -0.49744 -0.4975 0 -0.27469 0.22271 -0.4974 0.49744 -0.4974" stroke-width="1"></path>
    <path stroke="#dddddd" d="M8.51788 10.4989c0.27473 0 0.49744 -0.2227 0.49744 -0.4975 0 -0.27469 -0.22271 -0.4974 -0.49744 -0.4974" stroke-width="1"></path>
  </g>
  <g>
    <path stroke="#dddddd" d="M15.9796 10.4989c-0.2748 0 -0.4975 -0.2227 -0.4975 -0.4975 0 -0.27469 0.2227 -0.4974 0.4975 -0.4974" stroke-width="1"></path>
    <path stroke="#dddddd" d="M15.9795 10.4989c0.2748 0 0.4975 -0.2227 0.4975 -0.4975 0 -0.27469 -0.2227 -0.4974 -0.4975 -0.4974" stroke-width="1"></path>
  </g>
</svg>