<svg xmlns="http://www.w3.org/2000/svg" viewBox="0 0 24 24" id="Workflow-Pull-Request--Streamline-Ultimate" height="24" width="24">
  <desc>
    Workflow Pull Request Streamline Icon: https://streamlinehq.com
  </desc>
  <defs></defs>
  <path d="M17.366 20.433a3.067 3.067 0 1 0 6.134 0 3.067 3.067 0 1 0 -6.134 0" fill="none" stroke="#dddddd" stroke-linecap="round" stroke-linejoin="round" stroke-width="1"></path>
  <path d="M20.433 17.367V8.678a5.111 5.111 0 0 0 -5.111 -5.111h-4.089" fill="none" stroke="#dddddd" stroke-linecap="round" stroke-linejoin="round" stroke-width="1"></path>
  <path d="m14.3 0.5 -3.067 3.067L14.3 6.633" fill="none" stroke="#dddddd" stroke-linecap="round" stroke-linejoin="round" stroke-width="1"></path>
  <path d="M0.5 3.567a3.067 3.067 0 1 0 6.134 0 3.067 3.067 0 1 0 -6.134 0" fill="none" stroke="#dddddd" stroke-linecap="round" stroke-linejoin="round" stroke-width="1"></path>
  <path d="M3.567 6.633v8.689a5.111 5.111 0 0 0 5.111 5.111h4.089" fill="none" stroke="#dddddd" stroke-linecap="round" stroke-linejoin="round" stroke-width="1"></path>
  <path d="m9.7 23.5 3.067 -3.067L9.7 17.367" fill="none" stroke="#dddddd" stroke-linecap="round" stroke-linejoin="round" stroke-width="1"></path>
</svg>