<svg xmlns="http://www.w3.org/2000/svg" viewBox="0 0 24 24" id="Saving-Safe--Streamline-Ultimate" height="24" width="24">
  <desc>
    Saving Safe Streamline Icon: https://streamlinehq.com
  </desc>
  <defs></defs>
  <title>saving-safe</title>
  <path d="M2.504 0.5h19s2 0 2 2v18s0 2 -2 2h-19s-2 0 -2 -2v-18s0 -2 2 -2" fill="none" stroke="#dddddd" stroke-linecap="round" stroke-linejoin="round" stroke-width="1"></path>
  <path d="m2.504 22.5 0 1" fill="none" stroke="#dddddd" stroke-linecap="round" stroke-linejoin="round" stroke-width="1"></path>
  <path d="m21.504 22.5 0 1" fill="none" stroke="#dddddd" stroke-linecap="round" stroke-linejoin="round" stroke-width="1"></path>
  <path d="M3.5 16.5v1a2 2 0 0 0 2 2h13a2 2 0 0 0 2 -2v-12a2 2 0 0 0 -2 -2h-13a2 2 0 0 0 -2 2v1" fill="none" stroke="#dddddd" stroke-linecap="round" stroke-linejoin="round" stroke-width="1"></path>
  <path d="m3.504 9.5 0 4" fill="none" stroke="#dddddd" stroke-linecap="round" stroke-linejoin="round" stroke-width="1"></path>
  <path d="M2.504 6.5h2v3h-2Z" fill="none" stroke="#dddddd" stroke-linecap="round" stroke-linejoin="round" stroke-width="1"></path>
  <path d="M2.504 13.5h2v3h-2Z" fill="none" stroke="#dddddd" stroke-linecap="round" stroke-linejoin="round" stroke-width="1"></path>
  <path d="M8.004 11.5a4.5 4.5 0 1 0 9 0 4.5 4.5 0 1 0 -9 0" fill="none" stroke="#dddddd" stroke-linecap="round" stroke-linejoin="round" stroke-width="1"></path>
  <path d="M10.004 11.5a2.5 2.5 0 1 0 5 0 2.5 2.5 0 1 0 -5 0" fill="none" stroke="#dddddd" stroke-linecap="round" stroke-linejoin="round" stroke-width="1"></path>
  <path d="m12.504 7 0 2" fill="none" stroke="#dddddd" stroke-linecap="round" stroke-linejoin="round" stroke-width="1"></path>
  <path d="m9.322 8.318 1.414 1.415" fill="none" stroke="#dddddd" stroke-linecap="round" stroke-linejoin="round" stroke-width="1"></path>
  <path d="m8.004 11.5 2 0" fill="none" stroke="#dddddd" stroke-linecap="round" stroke-linejoin="round" stroke-width="1"></path>
  <path d="m9.322 14.682 1.414 -1.414" fill="none" stroke="#dddddd" stroke-linecap="round" stroke-linejoin="round" stroke-width="1"></path>
  <path d="m12.504 16 0 -2" fill="none" stroke="#dddddd" stroke-linecap="round" stroke-linejoin="round" stroke-width="1"></path>
  <path d="m15.686 14.683 -1.414 -1.415" fill="none" stroke="#dddddd" stroke-linecap="round" stroke-linejoin="round" stroke-width="1"></path>
  <path d="m17.004 11.5 -2 0" fill="none" stroke="#dddddd" stroke-linecap="round" stroke-linejoin="round" stroke-width="1"></path>
  <path d="m15.686 8.318 -1.414 1.415" fill="none" stroke="#dddddd" stroke-linecap="round" stroke-linejoin="round" stroke-width="1"></path>
</svg>