<svg xmlns="http://www.w3.org/2000/svg" viewBox="0 0 24 24" id="Money-Wallet-Open--Streamline-Ultimate" height="24" width="24">
  <desc>
    Money Wallet Open Streamline Icon: https://streamlinehq.com
  </desc>
  <defs></defs>
  <title>money-wallet-open</title>
  <path d="m1.3 1.758 13.294 3.319A4.052 4.052 0 0 1 17.5 8.805v12a2.272 2.272 0 0 1 -2.92 2.312L3.424 20.493A3.985 3.985 0 0 1 0.5 16.805v-13a3.009 3.009 0 0 1 3 -3h17a3.008 3.008 0 0 1 3 3v11a3.008 3.008 0 0 1 -3 3h-3" fill="none" stroke="#dddddd" stroke-linecap="round" stroke-linejoin="round" stroke-width="1"></path>
  <path d="m9.504 3.805 10 0" fill="none" stroke="#dddddd" stroke-linecap="round" stroke-linejoin="round" stroke-width="1"></path>
  <path d="M11.004 13.805a2 2 0 1 0 4 0 2 2 0 1 0 -4 0" fill="none" stroke="#dddddd" stroke-linecap="round" stroke-linejoin="round" stroke-width="1"></path>
  <path d="m17.504 8.805 2 0" fill="none" stroke="#dddddd" stroke-linecap="round" stroke-linejoin="round" stroke-width="1"></path>
</svg>